<svg xmlns="http://www.w3.org/2000/svg" width="1400" height="1400" viewBox="0 0 1400 1400"><circle cx="330.6" cy="1041.4" r="2.92" fill="#c8922f" opacity="0.427"/><circle cx="544.2" cy="841.7" r="2.13" fill="#b98529" opacity="0.59"/><circle cx="1175.6" cy="976.7" r="2.80" fill="#f0e6cf" opacity="0.874"/><circle cx="327.4" cy="1238.7" r="2.70" fill="#f0e6cf" opacity="0.679"/><circle cx="108.9" cy="1275.1" r="1.80" fill="#d9a441" opacity="0.38"/><circle cx="870.8" cy="226.5" r="2.97" fill="#d9a441" opacity="0.333"/><circle cx="193.8" cy="901.0" r="1.66" fill="#d9a441" opacity="0.746"/><circle cx="92.1" cy="826.7" r="2.11" fill="#b98529" opacity="0.836"/><circle cx="92.3" cy="1214.9" r="2.88" fill="#f0e6cf" opacity="0.378"/><circle cx="288.0" cy="156.8" r="1.65" fill="#d9a441" opacity="0.798"/><circle cx="884.2" cy="402.3" r="1.74" fill="#d9a441" opacity="0.778"/><circle cx="904.8" cy="412.2" r="2.07" fill="#c8922f" opacity="0.327"/><circle cx="359.4" cy="395.6" r="2.60" fill="#c8922f" opacity="0.848"/><circle cx="1076.9" cy="842.8" r="2.27" fill="#c8922f" opacity="0.677"/><circle cx="43.4" cy="578.1" r="2.21" fill="#d9a441" opacity="0.518"/><circle cx="986.5" cy="753.0" r="1.90" fill="#d9a441" opacity="0.651"/><circle cx="402.0" cy="610.5" r="2.33" fill="#c8922f" opacity="0.761"/><circle cx="1369.0" cy="6.1" r="2.29" fill="#f0e6cf" opacity="0.722"/><path d="M12 0c.9 7.9 3.2 11.1 12 12-8.8.9-11.1 4.1-12 12-.9-7.9-3.2-11.1-12-12 8.8-.9 11.1-4.1 12-12Z" fill="#b98529" opacity="0.567" transform="translate(1155.5 1354.0) rotate(12.4) scale(0.914) translate(-12 -12)"/><path d="M12 0c.9 7.9 3.2 11.1 12 12-8.8.9-11.1 4.1-12 12-.9-7.9-3.2-11.1-12-12 8.8-.9 11.1-4.1 12-12Z" fill="#f0e6cf" opacity="0.525" transform="translate(397.2 300.6) rotate(12.3) scale(0.958) translate(-12 -12)"/><path d="M12 0c.9 7.9 3.2 11.1 12 12-8.8.9-11.1 4.1-12 12-.9-7.9-3.2-11.1-12-12 8.8-.9 11.1-4.1 12-12Z" fill="#b98529" opacity="0.804" transform="translate(1073.5 686.4) rotate(3.6) scale(1.080) translate(-12 -12)"/><path d="M12 0c.9 7.9 3.2 11.1 12 12-8.8.9-11.1 4.1-12 12-.9-7.9-3.2-11.1-12-12 8.8-.9 11.1-4.1 12-12Z" fill="#d9a441" opacity="0.64" transform="translate(497.9 561.8) rotate(4.1) scale(0.831) translate(-12 -12)"/><path d="M12 0c.9 7.9 3.2 11.1 12 12-8.8.9-11.1 4.1-12 12-.9-7.9-3.2-11.1-12-12 8.8-.9 11.1-4.1 12-12Z" fill="#b98529" opacity="0.676" transform="translate(520.7 424.4) rotate(-3.4) scale(0.845) translate(-12 -12)"/><path d="M12 0c.9 7.9 3.2 11.1 12 12-8.8.9-11.1 4.1-12 12-.9-7.9-3.2-11.1-12-12 8.8-.9 11.1-4.1 12-12Z" fill="#b98529" opacity="0.717" transform="translate(1237.6 327.0) rotate(5.3) scale(0.859) translate(-12 -12)"/><path d="M12 0c.9 7.9 3.2 11.1 12 12-8.8.9-11.1 4.1-12 12-.9-7.9-3.2-11.1-12-12 8.8-.9 11.1-4.1 12-12Z" fill="#b98529" opacity="0.52" transform="translate(847.5 47.4) rotate(9.6) scale(0.909) translate(-12 -12)"/><path d="M12 0c.9 7.9 3.2 11.1 12 12-8.8.9-11.1 4.1-12 12-.9-7.9-3.2-11.1-12-12 8.8-.9 11.1-4.1 12-12Z" fill="#f0e6cf" opacity="0.76" transform="translate(926.9 1038.8) rotate(-6.8) scale(0.737) translate(-12 -12)"/></svg>